<?xml version="1.0" encoding="UTF-8" standalone="no"?>
<!-- Generator: Adobe Illustrator 19.1.0, SVG Export Plug-In . SVG Version: 6.00 Build 0)  -->

<svg
   xmlns:dc="http://purl.org/dc/elements/1.1/"
   xmlns:cc="http://creativecommons.org/ns#"
   xmlns:rdf="http://www.w3.org/1999/02/22-rdf-syntax-ns#"
   xmlns:svg="http://www.w3.org/2000/svg"
   xmlns="http://www.w3.org/2000/svg"
   xmlns:sodipodi="http://sodipodi.sourceforge.net/DTD/sodipodi-0.dtd"
   xmlns:inkscape="http://www.inkscape.org/namespaces/inkscape"
   version="1.1"
   id="Capa_1"
   x="0px"
   y="0px"
   viewBox="0 0 64 64"
   xml:space="preserve"
   inkscape:version="0.48.4 r9939"
   width="100%"
   height="100%"
   sodipodi:docname="upload.svg"><metadata
     id="metadata45"><rdf:RDF><cc:Work
         rdf:about=""><dc:format>image/svg+xml</dc:format><dc:type
           rdf:resource="http://purl.org/dc/dcmitype/StillImage" /></cc:Work></rdf:RDF></metadata><defs
     id="defs43" /><sodipodi:namedview
     pagecolor="#ffffff"
     bordercolor="#666666"
     borderopacity="1"
     objecttolerance="10"
     gridtolerance="10"
     guidetolerance="10"
     inkscape:pageopacity="0"
     inkscape:pageshadow="2"
     inkscape:window-width="1920"
     inkscape:window-height="1171"
     id="namedview41"
     showgrid="false"
     inkscape:zoom="5.6664584"
     inkscape:cx="-16.973491"
     inkscape:cy="18.265823"
     inkscape:window-x="1280"
     inkscape:window-y="0"
     inkscape:window-maximized="1"
     inkscape:current-layer="Capa_1" /><g
     id="g11"
     transform="translate(0,-407.2)" /><g
     id="g13"
     transform="translate(0,-407.2)" /><g
     id="g15"
     transform="translate(0,-407.2)" /><g
     id="g17"
     transform="translate(0,-407.2)" /><g
     id="g19"
     transform="translate(0,-407.2)" /><g
     id="g21"
     transform="translate(0,-407.2)" /><g
     id="g23"
     transform="translate(0,-407.2)" /><g
     id="g25"
     transform="translate(0,-407.2)" /><g
     id="g27"
     transform="translate(0,-407.2)" /><g
     id="g29"
     transform="translate(0,-407.2)" /><g
     id="g31"
     transform="translate(0,-407.2)" /><g
     id="g33"
     transform="translate(0,-407.2)" /><g
     id="g35"
     transform="translate(0,-407.2)" /><g
     id="g37"
     transform="translate(0,-407.2)" /><g
     id="g39"
     transform="translate(0,-407.2)" /><rect
     style="fill:#268bd2;fill-opacity:1;stroke:none"
     id="rect3022"
     width="64"
     height="64"
     x="0"
     y="0" /><g
     id="g3"
     transform="matrix(0.09614697,0,0,0.09614697,9.0929391,8.5642937)"
     style="fill:#ffffff;fill-opacity:1"><g
       id="g5"
       style="fill:#ffffff;fill-opacity:1"><path
         d="m 457.7,230.15 c -7.5,0 -13.5,6 -13.5,13.5 v 122.8 c 0,33.4 -27.2,60.5 -60.5,60.5 H 87.5 c -33.4,0 -60.5,-27.2 -60.5,-60.5 v -124.8 c 0,-7.5 -6,-13.5 -13.5,-13.5 -7.5,0 -13.5,6 -13.5,13.5 v 124.8 c 0,48.3 39.3,87.5 87.5,87.5 h 296.2 c 48.3,0 87.5,-39.3 87.5,-87.5 v -122.8 c 0,-7.4 -6,-13.5 -13.5,-13.5 z"
         id="path7"
         inkscape:connector-curvature="0"
         style="fill:#ffffff;fill-opacity:1" /><path
         d="m 159.3,126.15 62.8,-62.8 v 273.9 c 0,7.5 6,13.5 13.5,13.5 7.5,0 13.5,-6 13.5,-13.5 V 63.35 l 62.8,62.8 c 2.6,2.6 6.1,4 9.5,4 3.5,0 6.9,-1.3 9.5,-4 5.3,-5.3 5.3,-13.8 0,-19.1 l -85.8,-85.8 c -2.5,-2.5 -6,-4 -9.5,-4 -3.6,0 -7,1.4 -9.5,4 l -85.8,85.8 c -5.3,5.3 -5.3,13.8 0,19.1 5.2,5.2 13.8,5.2 19,0 z"
         id="path9"
         inkscape:connector-curvature="0"
         style="fill:#ffffff;fill-opacity:1" /></g></g></svg>